<?xml version="1.0" encoding="utf-8"?>
<!-- Generator: Adobe Illustrator 16.0.0, SVG Export Plug-In . SVG Version: 6.00 Build 0)  -->
<!DOCTYPE svg PUBLIC "-//W3C//DTD SVG 1.1//EN" "http://www.w3.org/Graphics/SVG/1.1/DTD/svg11.dtd">
<svg version="1.1" id="圖層_1" xmlns="http://www.w3.org/2000/svg" xmlns:xlink="http://www.w3.org/1999/xlink" x="0px" y="0px"
	 width="60px" height="60px" viewBox="0 0 60 60" enable-background="new 0 0 60 60" xml:space="preserve">
<g>
	<linearGradient id="SVGID_1_" gradientUnits="userSpaceOnUse" x1="10.7959" y1="2.625" x2="48.5578" y2="41.6627">
		<stop  offset="0" style="stop-color:#D90429"/>
		<stop  offset="1" style="stop-color:#028090"/>
	</linearGradient>
	<path fill="url(#SVGID_1_)" d="M56.406,13.571c-1.303-2.717-3.225-4.771-5.705-6.104c-2.303-1.237-4.969-1.796-7.924-1.662
		c-3.219,0.147-6.219,1.155-8.92,2.998c-0.807,0.548-1.564,1.176-2.254,1.865L30,12.271l-1.604-1.604
		c-0.689-0.689-1.447-1.316-2.252-1.864c-2.703-1.843-5.704-2.851-8.922-2.998c-2.954-0.135-5.62,0.424-7.922,1.662
		c-2.482,1.333-4.402,3.387-5.707,6.104c-2.602,5.415-2.511,11.026,0.268,16.68c1.663,3.382,4.063,6.301,6.41,8.953
		c4.823,5.451,10.567,10.879,18.076,17.079c0.2,0.164,0.399,0.322,0.609,0.455L30,57.417l1.044-0.679
		c0.209-0.133,0.41-0.291,0.607-0.455c7.51-6.2,13.254-11.628,18.078-17.079c2.346-2.652,4.746-5.571,6.408-8.953
		C58.92,24.598,59.01,18.986,56.406,13.571z M6.499,16.916c1.401-4.271,5.392-7.17,9.796-7.17c0.135,0,0.269,0.002,0.404,0.008
		c2.965,0.119,5.576,1.081,7.983,2.94c0.477,0.367,0.943,0.781,1.428,1.267l1.102,1.101L16.713,25.559v5.577L30,17.85l13.287,13.286
		v-5.577L32.789,15.061l1.102-1.101c0.484-0.485,0.951-0.899,1.428-1.267c2.406-1.859,5.018-2.821,7.982-2.94
		c4.563-0.185,8.758,2.762,10.199,7.163c1.439,4.389,0.875,8.754-1.68,12.975c-1.783,2.946-3.994,5.513-5.922,7.634
		C40.586,43.367,34.689,48.551,30,52.505c-4.688-3.954-10.587-9.138-15.897-14.98c-1.928-2.121-4.14-4.688-5.923-7.634
		C5.626,25.67,5.06,21.305,6.499,16.916z"/>
	<g>
		<rect x="25.235" y="26.852" fill="#028090" width="4" height="4"/>
		<rect x="30.735" y="26.852" fill="#D90429" width="4" height="4"/>
		<rect x="25.235" y="32.352" fill="#02C39A" width="4" height="4"/>
		<rect x="30.735" y="32.352" fill="#E9832C" width="4" height="4"/>
	</g>
</g>
</svg>
