<?xml version="1.0" encoding="utf-8"?>
<!-- Generator: Adobe Illustrator 16.0.0, SVG Export Plug-In . SVG Version: 6.00 Build 0)  -->
<!DOCTYPE svg PUBLIC "-//W3C//DTD SVG 1.1//EN" "http://www.w3.org/Graphics/SVG/1.1/DTD/svg11.dtd">
<svg version="1.1" id="圖層_1" xmlns="http://www.w3.org/2000/svg" xmlns:xlink="http://www.w3.org/1999/xlink" x="0px" y="0px"
	 width="100px" height="100px" viewBox="0 0 100 100" enable-background="new 0 0 100 100" xml:space="preserve">
<g>
	<circle fill="#E6E6E6" cx="50" cy="50" r="50"/>
	<path fill="#028090" d="M70.318,27.878c0.693,1.229,0.646,3.17,0.037,5.583c-0.721,2.842-2.496,4.882-4.254,5.082
		c-0.893,4.107-2.65,7.732-4.98,10.482c3.078,2.441,5.637,5.183,7.449,8.361c4.563,1.457,9.035,3.889,13.543,5.929
		c1.139,0.519,0.92,0.337,1.43,1.512c2.076,4.809,3.553,9.708,5.365,14.554C79.918,90.993,65.848,98.47,50.02,98.47
		c-15.848,0-29.945-7.504-38.936-19.162c2.094-4.463,3.334-9.827,5.555-14.526c0.611-1.274,0.41-1.074,1.678-1.63
		c4.344-1.895,8.441-4.053,13.158-5.538c2.086-3.569,4.729-6.384,7.998-8.323c-2.451-2.778-4.271-6.485-5.201-10.738
		c-1.857,0.037-3.826-2.067-4.59-5.091c-0.609-2.413-0.646-4.354,0.035-5.583c0.365-0.638,0.803-0.956,1.268-1.057
		c-2.732-9.745,0.49-16.512,7.414-20.573c9.662-7.35,21.984-6.713,29.406,3.561C71.283,14.627,71.85,21.776,70.318,27.878z"/>
	<path fill="#3D3D3D" d="M49.818,1.457c-3.916,0.446-7.852,2.067-11.42,4.791c-6.924,4.062-10.146,10.828-7.414,20.573
		c1.064-0.228,2.258,0.729,2.832,1.813c0.127,0.255,0.256,0.656,0.209,0.938c0.055,1.284,0.219,2.567,0.502,3.752
		c0.09,0.383,0.801,0.783,0.709,0.2c-0.336-2.131-0.072-4.636-0.428-6.648l-0.328-1.794c1.211-4.809,3.617-8.889,6.74-11.594
		c2.814,3.087,6.129,5.646,10.502,6.111c7.539,0.811,11.875,3.26,14.125,7.276c-0.355,2.013-0.102,4.518-0.428,6.648
		c-0.092,0.583,0.619,0.183,0.709-0.2c0.283-1.185,0.201-2.459,0.256-3.743c-0.127-0.455-0.137-0.983,0.109-1.375
		c0.865-1.394,2.768-2.223,3.824-0.328c1.531-6.102,0.965-13.251-2.514-18.069c-3.633-5.027-8.441-7.75-13.543-8.352H49.818z"/>
	<path fill="#F6D5B8" d="M30.301,27.158c-0.209,0.174-0.4,0.41-0.584,0.72c-0.682,1.229-0.645,3.17-0.035,5.583
		c0.527,2.059,1.604,3.697,2.832,4.518c0.564,0.382,1.166,0.592,1.758,0.573c0.93,4.253,2.75,7.96,5.201,10.738
		c-0.301,0.874-0.584,2.067-0.838,3.26c3.27,5.063,7.186,8.015,11.385,8.015c4.426,0,8.523-3.26,11.893-8.807
		c-0.301-1.221-0.592-2.204-0.791-2.732c2.33-2.75,4.088-6.375,4.98-10.482c0.482-0.055,0.967-0.255,1.43-0.564
		c1.23-0.82,2.305-2.459,2.824-4.518c0.609-2.413,0.656-4.354-0.037-5.583c-0.172-0.31-0.363-0.546-0.572-0.72
		c-1.076-0.893-2.533-0.118-3.252,1.048c-0.246,0.392-0.236,0.92-0.109,1.375c-0.055,1.284,0.027,2.559-0.256,3.743
		c-0.09,0.383-0.801,0.783-0.709,0.2c0.326-2.131,0.072-4.636,0.428-6.648c-2.25-4.017-6.586-6.466-14.125-7.276
		c-4.373-0.465-7.688-3.024-10.502-6.111c-3.123,2.705-5.529,6.785-6.74,11.594l0.328,1.794c0.355,2.013,0.092,4.518,0.428,6.648
		c0.092,0.583-0.619,0.183-0.709-0.2c-0.283-1.185-0.447-2.468-0.502-3.752c0.047-0.282-0.082-0.684-0.209-0.938
		c-0.574-1.084-1.768-2.04-2.832-1.813C30.746,26.867,30.52,26.977,30.301,27.158z"/>
	<path fill="#E6C6AA" d="M34.127,37.568c-0.365-1.667-0.566-3.352-0.602-5.046c-0.027-1.083,0.008-2.177,0.109-3.26
		c-0.092-0.128-0.184-0.246-0.291-0.364c-0.355-0.374-0.994-0.856-1.568-0.802c-0.428,0.027-0.709,0.373-0.893,0.692
		c-0.719,1.284-0.236,3.442,0.156,4.754c0.336,1.12,0.928,2.286,1.803,3.142C33.178,37.021,33.635,37.368,34.127,37.568z
		 M66.139,37.568c0.365-1.667,0.564-3.352,0.602-5.046c0.035-1.083-0.01-2.177-0.109-3.26c0.09-0.128,0.182-0.246,0.291-0.364
		c0.355-0.374,0.992-0.856,1.566-0.802c0.428,0.027,0.711,0.373,0.893,0.692c0.721,1.284,0.236,3.442-0.154,4.754
		c-0.328,1.12-0.93,2.286-1.803,3.142C67.086,37.021,66.631,37.368,66.139,37.568z"/>
	<path opacity="0.5" fill="#1997A7" d="M39.473,49.335C33.297,66.667,46.484,82.924,49.49,98.47
		c-0.492-0.009-0.984-0.018-1.475-0.045l-19.91-24.982l5.684-4.453c-1.238-1.73-3.543-2.56-4.563-4.345
		c0.955-2.259,0.883-4.826,2.248-6.985C33.561,54.089,36.203,51.275,39.473,49.335z M62.178,49.9
		c2.613,2.213,4.789,4.681,6.393,7.486c0.236,0.072,0.465,0.154,0.691,0.227l0.027,0.046c1.367,2.159,1.295,4.727,2.25,6.985
		c-1.02,1.785-3.314,2.614-4.563,4.345l5.684,4.453L52.787,98.397c-0.502,0.027-1.002,0.045-1.512,0.055
		c3.014-15.538,16.193-31.795,10.018-49.117C61.594,49.518,61.885,49.699,62.178,49.9z"/>
	<path fill="#E6C6AA" d="M61.121,49.025c0.045-0.055-4.318,4.918-10.893,4.918c-4.582,0-10.729-4.626-10.729-4.617l-0.191,0.811
		c1.166,1.356,2.477,2.44,3.916,3.306c2.131,1.275,4.545,2.068,7.168,2.505c2.521,0.419,5.244,0.51,8.088,0.383
		c1.211-1.267,2.357-2.806,3.432-4.572C61.621,50.547,61.32,49.554,61.121,49.025z"/>
	<path fill="#FFFFFF" d="M50.02,60.564c-4.199,0-8.115-2.951-11.385-8.015c0.254-1.192,0.537-2.386,0.838-3.26
		c-3.998,11.22,0.117,21.985,4.334,32.404c2.305,5.691,4.637,11.274,5.693,16.775h0.52c0.418,0,0.836-0.009,1.246-0.018
		c0.984-5.073,3.051-10.237,5.174-15.474c4.381-10.82,9.016-22.014,4.854-33.688c0.219,0.137,0.428,0.264,0.646,0.4
		c-0.273-0.219-0.545-0.446-0.818-0.665c0.199,0.528,0.49,1.512,0.791,2.732c-1.074,1.767-2.221,3.306-3.432,4.572
		C55.893,59.053,53.033,60.564,50.02,60.564z"/>
	<path fill="#D90429" d="M50.074,61.503l-5.275,8.406l1.777,2.559l-2.77,9.254c2.295,5.683,4.627,11.257,5.684,16.748h0.529
		c0.418,0,0.836-0.009,1.256-0.018c0.984-5.064,3.041-10.21,5.164-15.446c0.281-0.766-3.006-10.419-3.006-10.419l1.775-3.124
		L50.074,61.503z"/>
	<path fill="#E6E6E6" d="M50.074,61.686l-8.217,11.146l-3.496-8.105c0.982,5.793,3.223,11.476,5.482,17.059l2.732-9.135l-1.777-2.56
		L50.074,61.686z M58.342,72.996l-8.268-11.311l5.135,7.959l-1.775,3.124c0,0,2.887,8.479,3.016,10.173
		c2.484-6.11,5.035-12.35,6.037-18.725L58.342,72.996z"/>
	<path fill="#E6C6AA" d="M51.723,19.6c-4.373-0.465-7.688-3.024-10.502-6.111c-3.123,2.705-5.529,6.785-6.74,11.594
		c2.232-3.425,3.68-7.814,6.695-10.264c4.07,8.36,18.277,5.282,24.672,12.058C63.598,22.859,59.262,20.41,51.723,19.6z"/>
</g>
</svg>
