<?xml version="1.0" encoding="utf-8"?>
<!-- Generator: Adobe Illustrator 16.0.0, SVG Export Plug-In . SVG Version: 6.00 Build 0)  -->
<!DOCTYPE svg PUBLIC "-//W3C//DTD SVG 1.1//EN" "http://www.w3.org/Graphics/SVG/1.1/DTD/svg11.dtd">
<svg version="1.1" id="圖層_1" xmlns="http://www.w3.org/2000/svg" xmlns:xlink="http://www.w3.org/1999/xlink" x="0px" y="0px"
	 width="145px" height="48px" viewBox="12.5 4.5 145 48" enable-background="new 12.5 4.5 145 48" xml:space="preserve">
<g>
	<g>
		
			<path fill="#E72C31" stroke="#FFFFFF" stroke-width="1.7742" stroke-linecap="round" stroke-linejoin="round" stroke-miterlimit="10" d="
			M46.335,41.186v9.402c3.965,0,18.543-7.451,13.99-19.295c-4.619-12.014-16.842-7.217-16.842-7.217
			c4.055-5.044-0.044-16.383-12.119-16.383c-12.074,0-14.137,12.681-14.836,19.636c-0.714,7.085,2.583,18.267,3.029,19.916
			s1.604,1.693,1.604,1.693l7.485,1.648v-9.4H46.335z"/>
		<path fill="#1C888D" stroke="#FFFFFF" stroke-width="1.7742" stroke-linejoin="round" stroke-miterlimit="10" d="M37.62,41.186
			c0,0,9.332,0,11.453,0c1.971,0,0.44-1.527,0.44-1.527L37.62,26.528l-11.893,13.13c0,0-1.532,1.527,0.44,1.527
			C28.288,41.186,37.62,41.186,37.62,41.186z"/>
		<polygon fill="#4CCB45" stroke="#FFFFFF" stroke-width="1.7742" stroke-linejoin="round" stroke-miterlimit="10" points="
			27.599,37.537 27.599,27.288 32.87,27.288 32.865,31.723 31.047,33.73 		"/>
	</g>
	<g>
		<path fill="#333333" d="M70.691,28.204c-0.286,2.423-0.528,4.208-0.749,5.397c-0.22,1.059-0.485,2.225-0.793,3.461
			c-0.198,0.396-0.484,0.594-0.859,0.594c-0.639,0-0.947-0.221-0.947-0.684v-0.418c0.331-1.189,0.617-2.291,0.837-3.307
			c0.22-1.123,0.485-2.84,0.793-5.132c0.022-0.506,0.287-0.771,0.771-0.771C70.36,27.345,70.691,27.632,70.691,28.204z
			 M74.217,25.539v11.434c0,0.42,0.22,0.707,0.705,0.861c0.529,0.176,1.763,0.262,3.679,0.262c1.851,0,2.952-0.131,3.305-0.416
			c0.44-0.309,0.661-0.684,0.661-1.17v-2.711c0.021-0.66,0.308-0.99,0.859-1.035c0.595,0.045,0.903,0.441,0.947,1.189
			c0,2.381-0.154,3.791-0.439,4.189c-0.177,0.482-0.617,0.879-1.323,1.188c-0.661,0.266-1.983,0.396-4.01,0.396
			c-2.622,0-4.319-0.197-5.089-0.551c-0.749-0.352-1.102-0.969-1.102-1.85V25.539c0-0.573,0.287-0.859,0.859-0.859
			C73.886,24.679,74.217,24.965,74.217,25.539z M76.882,22.079c0.926,1.388,1.917,3.614,2.931,6.698
			c0.22,0.639,0.353,1.079,0.353,1.322c0,0.528-0.287,0.77-0.859,0.77c-0.551,0-0.837-0.242-0.881-0.77
			c-0.749-2.821-1.719-5.221-2.887-7.205l-0.286-0.639c0-0.441,0.242-0.683,0.771-0.683C76.42,21.573,76.707,21.749,76.882,22.079z
			 M84.375,27.081c0.924,1.146,1.871,3.019,2.842,5.597c0.221,0.527,0.352,0.902,0.352,1.121c0,0.529-0.309,0.771-0.881,0.771
			c-0.529,0-0.814-0.242-0.859-0.771c-0.75-2.355-1.675-4.361-2.797-6.013l-0.287-0.528c0-0.462,0.242-0.705,0.771-0.705
			C83.912,26.552,84.198,26.728,84.375,27.081z"/>
		<path fill="#333333" d="M94.178,20.801c0,0.11-0.045,0.243-0.09,0.418c-0.373,1.762-0.836,3.306-1.365,4.648v13.859
			c0,0.572-0.287,0.857-0.859,0.857s-0.859-0.285-0.859-0.857V29.372c-0.219,0.353-0.418,0.66-0.615,0.968
			c-0.221,0.177-0.463,0.265-0.684,0.265c-0.572,0-0.859-0.243-0.859-0.771c0-0.088,0.043-0.265,0.178-0.528
			c0.725-1.102,1.365-2.357,1.936-3.724c0.598-1.454,1.104-3.128,1.5-5.046c0.064-0.33,0.33-0.506,0.771-0.506
			C93.846,20.03,94.178,20.295,94.178,20.801z M100.984,29.834c0,0.528-0.33,0.837-0.947,0.947
			c-0.309,0.045-0.639,0.088-1.035,0.109v1.346h3.371c0-0.088-0.021-0.199-0.021-0.287c-0.045-0.881-0.068-1.586-0.068-2.115
			c0-0.507,0.244-0.771,0.773-0.771c0.572,0,0.857,0.264,0.857,0.771c0,0.925,0.045,1.718,0.133,2.402h5.111
			c0.506,0,0.771,0.264,0.771,0.77c0,0.529-0.266,0.793-0.771,0.793h-4.891c0.178,0.838,0.418,1.543,0.771,2.16
			c0.021,0.045,0.043,0.088,0.066,0.111c0.021,0,0.043-0.023,0.064-0.045c0.441-0.375,0.971-0.924,1.588-1.629
			c0.109-0.111,0.285-0.176,0.506-0.176c0.197,0,0.373,0.064,0.527,0.197c0.154,0.154,0.244,0.309,0.244,0.484
			c0,0.242-0.066,0.439-0.178,0.617c-0.66,0.793-1.232,1.41-1.695,1.807c-0.045,0.045-0.066,0.045-0.066,0.045
			c0.176,0.195,0.375,0.373,0.574,0.504c0.396,0.309,0.682,0.486,0.859,0.486c0.154,0,0.262-0.242,0.328-0.682l0.178-1.125
			c0.043-0.396,0.285-0.617,0.684-0.617c0.572,0,0.881,0.264,0.881,0.771c0,0.242-0.045,0.572-0.109,0.992
			c-0.113,0.748-0.309,1.408-0.576,1.982c-0.264,0.375-0.617,0.572-1.057,0.572c-0.373,0-0.791-0.131-1.277-0.396
			c-0.748-0.441-1.344-0.904-1.807-1.432c-0.154,0.088-0.285,0.176-0.396,0.264c-0.727,0.441-1.563,0.881-2.533,1.301h-0.508
			c-0.197,0-0.375-0.088-0.506-0.266c-0.131-0.176-0.197-0.373-0.197-0.594c0-0.396,0.176-0.617,0.529-0.684
			c0.881-0.375,1.674-0.77,2.357-1.189c0.086-0.043,0.154-0.109,0.24-0.176c-0.285-0.441-0.506-0.904-0.66-1.389
			c-0.221-0.529-0.375-1.145-0.508-1.895H99v1.234c0.529-0.109,1.014-0.242,1.455-0.375c0.133-0.043,0.242-0.088,0.354-0.088
			c0.416,0.021,0.639,0.221,0.682,0.594c0,0.398-0.176,0.662-0.506,0.771c-0.551,0.221-1.213,0.418-1.984,0.596v1.916
			c0,1.234-0.725,1.873-2.158,1.873c-0.662,0-1.52-0.197-2.578-0.594c-0.395-0.133-0.594-0.396-0.594-0.771
			c0-0.551,0.242-0.838,0.682-0.859c0.088,0,0.199,0.021,0.375,0.066c0.949,0.352,1.566,0.529,1.875,0.529
			c0.506,0,0.77-0.287,0.77-0.859v-0.926c-0.904,0.176-1.939,0.354-3.107,0.508c-0.395-0.045-0.594-0.332-0.594-0.861
			c0-0.439,0.199-0.705,0.594-0.793c1.279-0.109,2.27-0.242,2.975-0.396c0.045,0,0.088-0.021,0.133-0.021v-1.543h-3.02
			c-0.527,0-0.771-0.264-0.771-0.791c0-0.508,0.244-0.771,0.771-0.771h3.02v-1.234c-1.078,0.088-1.828,0.109-2.248,0.109
			c-0.637,0-0.945-0.285-0.945-0.859c0-0.439,0.24-0.683,0.768-0.683c0.906,0,1.766-0.043,2.559-0.132
			c0.771-0.043,1.674-0.177,2.709-0.374C100.719,29.063,100.984,29.327,100.984,29.834z M98.736,20.272
			c0.354,0.44,0.707,0.925,1.037,1.476c0.043,0.133,0.088,0.242,0.088,0.331v0.088h3.504c0.086-0.088,0.197-0.199,0.285-0.331
			c0.332-0.44,0.641-0.903,0.947-1.388c0.154-0.22,0.375-0.353,0.684-0.353c0.221,0,0.418,0.088,0.617,0.265
			c0.154,0.176,0.242,0.375,0.242,0.617c0,0.176-0.068,0.352-0.176,0.506c-0.154,0.264-0.332,0.484-0.508,0.683h3.107
			c0.439,0,0.682,0.242,0.682,0.683c0,0.528-0.242,0.793-0.682,0.793h-6.215v1.101h5.508c0.463,0,0.705,0.243,0.705,0.706
			c0,0.529-0.242,0.771-0.705,0.771h-5.508v1.212h6.719c0.441,0,0.686,0.242,0.686,0.683c0,0.528-0.244,0.771-0.686,0.771H94.352
			c-0.463,0-0.682-0.243-0.682-0.771c0-0.441,0.219-0.683,0.682-0.683h6.281v-1.212h-5.07c-0.463,0-0.682-0.242-0.682-0.771
			c0-0.463,0.219-0.706,0.682-0.706h5.07v-1.101h-5.598c-0.463,0-0.684-0.265-0.684-0.793c0-0.44,0.221-0.683,0.684-0.683h3.24
			c-0.289-0.243-0.551-0.462-0.816-0.683c-0.133-0.243-0.176-0.419-0.176-0.506c0-0.573,0.309-0.882,0.947-0.882
			C98.408,20.096,98.563,20.163,98.736,20.272z M106.406,29.395c0.285,0.175,0.549,0.331,0.791,0.461
			c0.266,0.176,0.619,0.441,1.014,0.75c0.045,0.176,0.09,0.33,0.09,0.508c0,0.484-0.287,0.703-0.861,0.703
			c-0.242,0-0.439-0.043-0.594-0.176c-0.354-0.264-0.617-0.484-0.836-0.639c-0.199-0.133-0.42-0.264-0.641-0.396
			c-0.176-0.198-0.264-0.397-0.264-0.595c0-0.506,0.264-0.77,0.793-0.77C106.029,29.24,106.184,29.306,106.406,29.395z"/>
		<path fill="#333333" d="M130.506,20.978c-0.043,0.484-0.264,0.727-0.682,0.771c-2.688,0.529-7.559,0.771-14.652,0.771
			c-0.461,0-0.682,0.287-0.682,0.859v0.419h15.158c1.145,0,1.719,0.528,1.719,1.564v1.366c0,1.102-0.574,1.63-1.719,1.63h-6.125
			v1.828h7.756c0.506,0,0.771,0.266,0.771,0.771c0,0.574-0.266,0.859-0.771,0.859h-9.322c-0.064,0.529-0.131,1.016-0.217,1.455
			h7.049c1.146,0,1.719,0.639,1.719,1.895c0,1.102-0.086,2.115-0.264,3.018c-0.176,0.793-0.551,1.322-1.078,1.588
			c-0.596,0.264-1.434,0.396-2.533,0.396c-1.016,0-2.139-0.154-3.35-0.441c-0.42-0.131-0.617-0.418-0.617-0.859
			c0-0.703,0.242-1.033,0.771-1.033c1.299,0.35,2.314,0.527,3.018,0.527c0.705,0,1.191-0.088,1.477-0.219
			c0.287-0.133,0.484-0.377,0.596-0.771c0.109-0.42,0.176-0.926,0.176-1.521c0-0.684-0.287-1.035-0.857-1.035h-6.369
			c-0.066,0-0.111,0-0.111,0c-0.064,0.221-0.133,0.42-0.197,0.596c-0.441,1.189-1.102,2.156-1.982,2.863
			c-0.883,0.705-2.072,1.322-3.613,1.852c-0.154,0.02-0.221,0.043-0.221,0.043c-0.641,0-0.947-0.352-0.947-1.035
			c0-0.33,0.176-0.551,0.529-0.684c1.322-0.396,2.379-0.924,3.172-1.607c0.617-0.529,1.102-1.258,1.5-2.182
			c0.262-0.684,0.482-1.631,0.639-2.842h-4.121c-0.527,0-0.77-0.287-0.77-0.859c0-0.507,0.242-0.771,0.77-0.771h5.598v-1.829h-7.227
			v2.336c0,2.225-0.223,4.098-0.617,5.641c-0.377,1.365-0.773,2.334-1.191,2.973c-0.221,0.266-0.506,0.398-0.859,0.42
			c-0.615-0.045-0.924-0.33-0.947-0.859c0-0.066,0.043-0.221,0.178-0.484c0.506-0.795,0.879-1.74,1.145-2.844
			c0.375-1.365,0.572-2.996,0.572-4.846v-8.351c0-0.904,0.463-1.366,1.389-1.366c6.963,0,12.139-0.287,15.488-0.881
			C130.178,20.141,130.463,20.428,130.506,20.978z M129.295,26.904c0.221,0,0.354-0.154,0.354-0.506v-0.617
			c0-0.288-0.176-0.463-0.529-0.508H114.49v1.63H129.295z"/>
		<path fill="#333333" d="M136.012,29.395c0,2.488-0.131,4.648-0.373,6.455c-0.221,1.322-0.463,2.469-0.75,3.459
			c-0.197,0.396-0.484,0.596-0.857,0.596c-0.617-0.045-0.926-0.332-0.949-0.859c0.375-1.674,0.66-3.174,0.859-4.494
			c0.221-1.541,0.352-3.262,0.352-5.156v-7.14c0-1.079,0.574-1.63,1.719-1.63h15.49c1.145,0,1.719,0.551,1.719,1.63v1.631
			c0,1.146-0.574,1.717-1.719,1.717h-15.49V29.395L136.012,29.395z M136.695,22.255c-0.463,0-0.684,0.242-0.684,0.683v1.035h15.051
			c0.285,0,0.439-0.154,0.439-0.507v-0.683c0-0.287-0.197-0.462-0.594-0.529h-5.686H136.695z M153.572,27.499
			c0,0.528-0.264,0.793-0.793,0.793h-8.967l-2.426,2.952c2.801-0.088,5.398-0.287,7.779-0.551c-0.309-0.22-0.639-0.461-0.947-0.683
			c-0.178-0.197-0.242-0.396-0.242-0.616c0-0.508,0.242-0.772,0.771-0.772c0.152,0,0.352,0.067,0.596,0.176
			c0.66,0.441,1.275,0.882,1.805,1.3c0.617,0.461,1.41,1.145,2.336,2.049c0.043,0.176,0.088,0.352,0.088,0.529
			c0,0.527-0.287,0.77-0.859,0.77c-0.285,0-0.527-0.045-0.705-0.176c-0.484-0.484-0.902-0.881-1.256-1.234
			c-0.043,0.023-0.088,0.023-0.109,0.023c-1.83,0.219-3.613,0.396-5.332,0.527v1.982h5.926c0.506,0,0.771,0.266,0.771,0.771
			c0,0.572-0.266,0.859-0.771,0.859h-5.926v1.895h7.469c0.527,0,0.793,0.242,0.793,0.771c0,0.572-0.266,0.859-0.793,0.859h-15.996
			c-0.527,0-0.771-0.287-0.771-0.859c0-0.529,0.244-0.771,0.771-0.771h6.809v-1.895h-5.508c-0.527,0-0.793-0.287-0.793-0.859
			c0-0.506,0.266-0.771,0.793-0.771h5.508v-1.828c-2.246,0.197-4.428,0.352-6.543,0.441c-0.529,0-0.793-0.332-0.793-1.035
			c0-0.486,0.264-0.75,0.793-0.771c0.705,0,1.41-0.023,2.115-0.045l2.49-3.041h-4.275c-0.527,0-0.77-0.264-0.77-0.793
			c0-0.506,0.242-0.771,0.77-0.771h15.4C153.309,26.728,153.572,26.992,153.572,27.499z"/>
	</g>
</g>
</svg>
