<?xml version="1.0" encoding="utf-8"?>
<!-- Generator: Adobe Illustrator 16.0.0, SVG Export Plug-In . SVG Version: 6.00 Build 0)  -->
<!DOCTYPE svg PUBLIC "-//W3C//DTD SVG 1.1//EN" "http://www.w3.org/Graphics/SVG/1.1/DTD/svg11.dtd">
<svg version="1.1" id="圖層_1" xmlns="http://www.w3.org/2000/svg" xmlns:xlink="http://www.w3.org/1999/xlink" x="0px" y="0px"
	 width="145px" height="48px" viewBox="0 0 145 48" enable-background="new 0 0 145 48" xml:space="preserve">
<g>
	<g>
		<path fill="#333333" d="M54.624,21.897c-0.286,2.423-0.528,4.208-0.749,5.397c-0.22,1.059-0.485,2.225-0.793,3.461
			c-0.198,0.396-0.484,0.594-0.859,0.594c-0.639,0-0.947-0.221-0.947-0.684v-0.418c0.331-1.189,0.617-2.291,0.837-3.308
			c0.22-1.123,0.485-2.839,0.793-5.132c0.022-0.506,0.287-0.771,0.771-0.771C54.292,21.039,54.624,21.325,54.624,21.897z
			 M58.149,19.232v11.434c0,0.42,0.221,0.707,0.705,0.861c0.529,0.176,1.764,0.262,3.68,0.262c1.851,0,2.951-0.131,3.305-0.416
			c0.439-0.309,0.66-0.684,0.66-1.17v-2.711c0.021-0.66,0.309-0.99,0.859-1.035c0.596,0.045,0.903,0.441,0.947,1.189
			c0,2.381-0.154,3.791-0.439,4.189c-0.177,0.481-0.617,0.879-1.322,1.188c-0.661,0.266-1.983,0.396-4.01,0.396
			c-2.623,0-4.319-0.197-5.09-0.552c-0.749-0.352-1.102-0.969-1.102-1.85V19.232c0-0.573,0.287-0.859,0.859-0.859
			C57.818,18.373,58.149,18.658,58.149,19.232z M60.814,15.772c0.927,1.388,1.917,3.614,2.931,6.698
			c0.221,0.639,0.354,1.078,0.354,1.323c0,0.527-0.287,0.769-0.859,0.769c-0.551,0-0.837-0.242-0.881-0.769
			c-0.749-2.823-1.719-5.222-2.887-7.206l-0.286-0.639c0-0.441,0.242-0.683,0.771-0.683C60.353,15.267,60.64,15.442,60.814,15.772z
			 M68.308,20.774c0.924,1.146,1.871,3.019,2.842,5.597c0.221,0.527,0.352,0.902,0.352,1.121c0,0.529-0.309,0.771-0.881,0.771
			c-0.528,0-0.813-0.242-0.858-0.771c-0.75-2.355-1.675-4.361-2.797-6.013l-0.287-0.528c0-0.462,0.241-0.705,0.771-0.705
			C67.845,20.245,68.131,20.422,68.308,20.774z"/>
		<path fill="#333333" d="M78.11,14.494c0,0.11-0.045,0.243-0.09,0.418c-0.373,1.762-0.836,3.307-1.365,4.648V33.42
			c0,0.571-0.287,0.856-0.858,0.856c-0.572,0-0.859-0.285-0.859-0.856V23.065c-0.219,0.353-0.418,0.661-0.614,0.968
			c-0.222,0.178-0.464,0.266-0.685,0.266c-0.572,0-0.858-0.244-0.858-0.772c0-0.088,0.043-0.266,0.178-0.527
			c0.725-1.103,1.365-2.357,1.936-3.725c0.598-1.454,1.104-3.128,1.5-5.046c0.064-0.33,0.33-0.506,0.771-0.506
			C77.778,13.723,78.11,13.988,78.11,14.494z M84.917,23.527c0,0.528-0.33,0.837-0.947,0.948c-0.309,0.044-0.639,0.087-1.035,0.109
			v1.346h3.371c0-0.088-0.021-0.199-0.021-0.287c-0.045-0.881-0.067-1.585-0.067-2.115c0-0.507,0.243-0.771,0.772-0.771
			c0.572,0,0.857,0.265,0.857,0.771c0,0.925,0.045,1.718,0.133,2.402h5.111c0.506,0,0.771,0.264,0.771,0.77
			c0,0.529-0.267,0.793-0.771,0.793H88.2c0.178,0.838,0.418,1.543,0.771,2.16c0.021,0.045,0.043,0.088,0.065,0.111
			c0.021,0,0.043-0.023,0.064-0.045c0.441-0.375,0.971-0.924,1.588-1.629c0.109-0.111,0.285-0.176,0.506-0.176
			c0.197,0,0.373,0.063,0.527,0.196c0.154,0.153,0.244,0.31,0.244,0.483c0,0.242-0.066,0.439-0.178,0.617
			c-0.66,0.793-1.232,1.41-1.695,1.808c-0.045,0.045-0.066,0.045-0.066,0.045c0.176,0.194,0.375,0.373,0.574,0.504
			c0.396,0.31,0.682,0.485,0.859,0.485c0.154,0,0.262-0.241,0.328-0.682l0.178-1.125c0.043-0.396,0.285-0.617,0.684-0.617
			c0.572,0,0.881,0.265,0.881,0.771c0,0.242-0.045,0.572-0.108,0.992c-0.113,0.748-0.31,1.408-0.576,1.982
			c-0.265,0.375-0.617,0.571-1.058,0.571c-0.373,0-0.791-0.131-1.276-0.396c-0.748-0.441-1.345-0.904-1.808-1.433
			c-0.153,0.089-0.285,0.177-0.396,0.265c-0.728,0.44-1.563,0.881-2.533,1.301h-0.508c-0.196,0-0.375-0.088-0.506-0.266
			c-0.131-0.177-0.197-0.373-0.197-0.595c0-0.396,0.177-0.616,0.529-0.685c0.881-0.375,1.674-0.77,2.356-1.188
			c0.086-0.043,0.154-0.108,0.24-0.176c-0.285-0.44-0.506-0.904-0.66-1.39c-0.221-0.528-0.375-1.145-0.508-1.895h-3.59v1.234
			c0.529-0.109,1.014-0.242,1.455-0.375c0.133-0.043,0.242-0.088,0.354-0.088c0.416,0.021,0.64,0.221,0.683,0.594
			c0,0.398-0.177,0.662-0.507,0.771c-0.551,0.221-1.213,0.418-1.983,0.596v1.916c0,1.234-0.726,1.873-2.158,1.873
			c-0.661,0-1.52-0.197-2.577-0.594c-0.396-0.134-0.595-0.396-0.595-0.771c0-0.551,0.242-0.838,0.683-0.859
			c0.088,0,0.198,0.021,0.375,0.066c0.948,0.352,1.565,0.529,1.875,0.529c0.506,0,0.77-0.287,0.77-0.859v-0.926
			c-0.904,0.176-1.939,0.354-3.107,0.508c-0.395-0.045-0.594-0.332-0.594-0.861c0-0.439,0.199-0.705,0.594-0.793
			c1.279-0.109,2.271-0.242,2.976-0.396c0.045,0,0.088-0.021,0.133-0.021v-1.543h-3.021c-0.526,0-0.771-0.264-0.771-0.791
			c0-0.508,0.244-0.771,0.771-0.771h3.021v-1.234c-1.078,0.088-1.828,0.109-2.248,0.109c-0.637,0-0.944-0.285-0.944-0.859
			c0-0.44,0.239-0.684,0.768-0.684c0.906,0,1.766-0.043,2.559-0.131c0.771-0.043,1.674-0.178,2.709-0.375
			C84.651,22.756,84.917,23.021,84.917,23.527z M82.669,13.965c0.354,0.44,0.707,0.925,1.037,1.476
			c0.043,0.133,0.088,0.242,0.088,0.331v0.088h3.504c0.086-0.088,0.197-0.199,0.285-0.331c0.332-0.44,0.641-0.903,0.947-1.388
			c0.153-0.22,0.375-0.353,0.684-0.353c0.221,0,0.418,0.088,0.617,0.265c0.153,0.176,0.242,0.375,0.242,0.617
			c0,0.176-0.068,0.352-0.177,0.506c-0.153,0.264-0.332,0.484-0.508,0.683h3.106c0.439,0,0.683,0.242,0.683,0.683
			c0,0.528-0.242,0.793-0.683,0.793H86.28v1.101h5.508c0.463,0,0.705,0.243,0.705,0.706c0,0.529-0.242,0.771-0.705,0.771H86.28
			v1.211h6.719c0.441,0,0.687,0.242,0.687,0.684c0,0.527-0.244,0.771-0.687,0.771H78.284c-0.463,0-0.682-0.243-0.682-0.771
			c0-0.441,0.219-0.684,0.682-0.684h6.281v-1.211h-5.07c-0.463,0-0.682-0.242-0.682-0.771c0-0.463,0.219-0.706,0.682-0.706h5.07
			v-1.101h-5.598c-0.463,0-0.684-0.265-0.684-0.793c0-0.44,0.221-0.683,0.684-0.683h3.24c-0.289-0.243-0.551-0.462-0.816-0.683
			c-0.133-0.243-0.176-0.419-0.176-0.506c0-0.573,0.309-0.882,0.947-0.882C82.341,13.79,82.495,13.856,82.669,13.965z
			 M90.339,23.088c0.285,0.176,0.549,0.332,0.791,0.461c0.266,0.177,0.619,0.442,1.014,0.75c0.045,0.177,0.09,0.33,0.09,0.508
			c0,0.483-0.287,0.702-0.861,0.702c-0.241,0-0.438-0.043-0.594-0.176c-0.354-0.264-0.617-0.483-0.836-0.639
			c-0.199-0.133-0.42-0.263-0.641-0.396c-0.176-0.197-0.264-0.396-0.264-0.595c0-0.506,0.264-0.77,0.793-0.77
			C89.962,22.934,90.116,23,90.339,23.088z"/>
		<path fill="#333333" d="M114.438,14.671c-0.043,0.484-0.264,0.727-0.682,0.771c-2.688,0.529-7.559,0.771-14.652,0.771
			c-0.461,0-0.682,0.287-0.682,0.859v0.419h15.158c1.145,0,1.719,0.528,1.719,1.563v1.367c0,1.102-0.574,1.629-1.719,1.629h-6.125
			v1.829h7.756c0.506,0,0.771,0.267,0.771,0.771c0,0.574-0.266,0.859-0.771,0.859h-9.322c-0.064,0.529-0.131,1.016-0.217,1.455
			h7.049c1.146,0,1.719,0.639,1.719,1.895c0,1.102-0.086,2.115-0.264,3.018c-0.176,0.793-0.551,1.322-1.078,1.588
			c-0.596,0.265-1.434,0.396-2.533,0.396c-1.016,0-2.139-0.154-3.35-0.441c-0.42-0.131-0.617-0.418-0.617-0.858
			c0-0.703,0.242-1.033,0.771-1.033c1.299,0.351,2.313,0.526,3.018,0.526c0.705,0,1.191-0.088,1.477-0.219
			c0.287-0.133,0.484-0.377,0.596-0.771c0.109-0.42,0.177-0.927,0.177-1.521c0-0.685-0.287-1.035-0.856-1.035h-6.369
			c-0.066,0-0.111,0-0.111,0c-0.064,0.221-0.133,0.42-0.197,0.596c-0.441,1.189-1.102,2.156-1.982,2.863
			c-0.883,0.705-2.071,1.322-3.612,1.852c-0.154,0.02-0.222,0.043-0.222,0.043c-0.641,0-0.946-0.352-0.946-1.035
			c0-0.33,0.176-0.551,0.528-0.684c1.322-0.396,2.379-0.924,3.172-1.607c0.617-0.529,1.103-1.258,1.5-2.182
			c0.263-0.684,0.482-1.631,0.64-2.842h-4.121c-0.526,0-0.771-0.287-0.771-0.859c0-0.506,0.242-0.771,0.771-0.771h5.599v-1.829
			H98.43v2.336c0,2.224-0.224,4.097-0.617,5.64c-0.377,1.365-0.772,2.334-1.19,2.973c-0.222,0.267-0.506,0.398-0.859,0.42
			c-0.615-0.045-0.924-0.33-0.947-0.858c0-0.065,0.043-0.222,0.178-0.483c0.506-0.796,0.879-1.74,1.146-2.845
			c0.375-1.364,0.571-2.996,0.571-4.845v-8.352c0-0.904,0.464-1.366,1.39-1.366c6.963,0,12.14-0.287,15.487-0.881
			C114.11,13.834,114.396,14.122,114.438,14.671z M113.228,20.598c0.221,0,0.354-0.154,0.354-0.506v-0.617
			c0-0.288-0.176-0.463-0.528-0.508h-14.63v1.629h14.805V20.598z"/>
		<path fill="#333333" d="M119.944,23.088c0,2.488-0.131,4.648-0.373,6.455c-0.221,1.322-0.463,2.469-0.75,3.459
			c-0.197,0.396-0.483,0.596-0.856,0.596c-0.617-0.045-0.927-0.331-0.949-0.858c0.375-1.674,0.66-3.174,0.858-4.494
			c0.222-1.541,0.353-3.262,0.353-5.155v-7.141c0-1.079,0.574-1.63,1.72-1.63h15.489c1.146,0,1.72,0.551,1.72,1.63v1.631
			c0,1.146-0.574,1.716-1.72,1.716h-15.489v3.791H119.944z M120.628,15.948c-0.463,0-0.685,0.242-0.685,0.683v1.035h15.052
			c0.285,0,0.438-0.154,0.438-0.507v-0.683c0-0.287-0.197-0.462-0.594-0.529h-5.687L120.628,15.948L120.628,15.948z M137.505,21.192
			c0,0.528-0.264,0.793-0.793,0.793h-8.967l-2.427,2.952c2.802-0.088,5.398-0.287,7.779-0.55c-0.31-0.221-0.64-0.461-0.947-0.684
			c-0.178-0.197-0.241-0.396-0.241-0.615c0-0.509,0.241-0.772,0.771-0.772c0.151,0,0.353,0.067,0.596,0.176
			c0.66,0.441,1.275,0.882,1.806,1.3c0.617,0.461,1.41,1.145,2.336,2.048c0.043,0.177,0.088,0.353,0.088,0.529
			c0,0.527-0.287,0.77-0.859,0.77c-0.285,0-0.527-0.045-0.705-0.176c-0.484-0.483-0.902-0.881-1.256-1.233
			c-0.043,0.022-0.088,0.022-0.109,0.022c-1.83,0.219-3.612,0.396-5.332,0.527v1.982h5.926c0.507,0,0.771,0.266,0.771,0.771
			c0,0.572-0.266,0.859-0.771,0.859h-5.926v1.895h7.47c0.526,0,0.793,0.242,0.793,0.771c0,0.571-0.267,0.858-0.793,0.858h-15.996
			c-0.527,0-0.771-0.287-0.771-0.858c0-0.529,0.243-0.771,0.771-0.771h6.809v-1.895h-5.508c-0.526,0-0.793-0.287-0.793-0.859
			c0-0.506,0.267-0.771,0.793-0.771h5.508v-1.828c-2.245,0.197-4.428,0.352-6.543,0.441c-0.528,0-0.793-0.332-0.793-1.035
			c0-0.486,0.265-0.75,0.793-0.771c0.705,0,1.41-0.023,2.115-0.045l2.49-3.041h-4.275c-0.526,0-0.771-0.264-0.771-0.793
			c0-0.506,0.242-0.771,0.771-0.771h15.4C137.241,20.422,137.505,20.686,137.505,21.192z"/>
	</g>
	<g>
		<linearGradient id="SVGID_1_" gradientUnits="userSpaceOnUse" x1="12.6704" y1="2.8896" x2="40.1817" y2="31.3304">
			<stop  offset="0" style="stop-color:#D90429"/>
			<stop  offset="1" style="stop-color:#028090"/>
		</linearGradient>
		<path fill="url(#SVGID_1_)" d="M45.899,10.865c-0.949-1.979-2.349-3.476-4.156-4.447c-1.677-0.901-3.619-1.309-5.772-1.21
			c-2.345,0.107-4.531,0.841-6.499,2.184c-0.587,0.4-1.139,0.856-1.642,1.358l-1.168,1.168l-1.168-1.168
			c-0.502-0.502-1.054-0.958-1.641-1.358c-1.969-1.343-4.155-2.077-6.5-2.184c-2.151-0.099-4.094,0.309-5.771,1.21
			c-1.808,0.972-3.207,2.468-4.157,4.447c-1.896,3.945-1.83,8.033,0.195,12.151c1.211,2.464,2.96,4.591,4.67,6.523
			c3.514,3.972,7.698,7.926,13.168,12.441c0.146,0.121,0.291,0.236,0.444,0.332l0.761,0.496l0.761-0.496
			c0.152-0.096,0.299-0.211,0.442-0.332c5.471-4.516,9.657-8.47,13.17-12.441c1.709-1.933,3.458-4.06,4.67-6.523
			C47.731,18.897,47.796,14.81,45.899,10.865z M9.541,13.301c1.021-3.111,3.928-5.224,7.137-5.224c0.099,0,0.196,0.001,0.294,0.005
			c2.16,0.087,4.063,0.787,5.816,2.142c0.347,0.268,0.687,0.57,1.04,0.923l0.802,0.802l-7.648,7.648v4.063l9.68-9.68l9.68,9.68
			v-4.063l-7.648-7.648l0.802-0.802c0.354-0.353,0.692-0.655,1.04-0.923c1.753-1.354,3.656-2.055,5.816-2.142
			c3.324-0.134,6.381,2.013,7.43,5.218c1.049,3.197,0.638,6.377-1.223,9.452c-1.299,2.147-2.91,4.016-4.315,5.561
			c-3.87,4.258-8.166,8.033-11.582,10.914c-3.416-2.881-7.713-6.656-11.582-10.914c-1.405-1.545-3.016-3.414-4.315-5.561
			C8.905,19.679,8.493,16.499,9.541,13.301z"/>
		<g>
			<rect x="23.19" y="20.54" fill="#028090" width="2.915" height="2.915"/>
			<rect x="27.197" y="20.54" fill="#D90429" width="2.914" height="2.915"/>
			<rect x="23.19" y="24.547" fill="#02C39A" width="2.915" height="2.914"/>
			<rect x="27.197" y="24.547" fill="#E9832C" width="2.914" height="2.914"/>
		</g>
	</g>
</g>
</svg>
