<?xml version="1.0" encoding="utf-8"?>
<!-- Generator: Adobe Illustrator 16.0.0, SVG Export Plug-In . SVG Version: 6.00 Build 0)  -->
<svg version="1.2" baseProfile="tiny" id="圖層_1"
	 xmlns="http://www.w3.org/2000/svg" xmlns:xlink="http://www.w3.org/1999/xlink" x="0px" y="0px" width="170px" height="60px"
	 viewBox="0 0 170 60" xml:space="preserve">
<g>
	<g>
		
			<path fill="#ED1B00" stroke="#FFFFFF" stroke-width="2" stroke-linecap="round" stroke-linejoin="round" stroke-miterlimit="10" d="
			M42.804,44.368v11.296c4.765,0,22.281-8.95,16.81-23.181c-5.55-14.437-20.236-8.673-20.236-8.673
			c5.461-4.657-0.054-20.986-14.562-20.986S7.83,19.361,6.989,27.718c-0.857,8.512,3.104,21.949,3.64,23.93
			c0.536,1.98,1.927,2.034,1.927,2.034l8.994,1.981V44.368H42.804z"/>
		<path fill="#089ABC" stroke="#FFFFFF" stroke-width="2.1016" stroke-linejoin="round" stroke-miterlimit="10" d="M32.235,44.368
			c0,0,10.6,0,13.009,0c2.239,0,0.5-1.734,0.5-1.734L32.235,27.719L18.726,42.634c0,0-1.74,1.734,0.5,1.734
			C21.635,44.368,32.235,44.368,32.235,44.368z"/>
		<polygon fill="#54b788" stroke="#FFFFFF" stroke-width="2.1016" stroke-linejoin="round" stroke-miterlimit="10" points="
			22.193,38.807 22.193,27.669 29.045,27.669 29.045,31.24 25.269,35.41 		"/>
	</g>
	<g>
		<path fill="#333333" d="M72.842,28.53c-0.312,2.64-0.576,4.584-0.816,5.88c-0.24,1.152-0.528,2.424-0.864,3.769
			c-0.216,0.432-0.528,0.648-0.936,0.648c-0.696,0-1.032-0.24-1.032-0.744v-0.456c0.36-1.296,0.672-2.496,0.912-3.601
			c0.24-1.224,0.528-3.096,0.864-5.592c0.024-0.552,0.312-0.84,0.84-0.84C72.482,27.594,72.842,27.906,72.842,28.53z M76.683,25.626
			v12.457c0,0.456,0.24,0.768,0.768,0.936c0.576,0.192,1.92,0.288,4.008,0.288c2.016,0,3.216-0.144,3.6-0.456
			c0.48-0.336,0.72-0.744,0.72-1.272v-2.953c0.024-0.72,0.336-1.08,0.936-1.128c0.648,0.048,0.984,0.48,1.032,1.296
			c0,2.592-0.168,4.128-0.48,4.561c-0.192,0.528-0.672,0.96-1.44,1.296c-0.72,0.288-2.16,0.432-4.368,0.432
			c-2.856,0-4.705-0.216-5.544-0.6c-0.816-0.384-1.2-1.056-1.2-2.016V25.626c0-0.624,0.312-0.936,0.936-0.936
			C76.322,24.69,76.683,25.002,76.683,25.626z M79.587,21.857c1.008,1.512,2.088,3.937,3.192,7.297
			c0.24,0.696,0.384,1.176,0.384,1.44c0,0.576-0.312,0.84-0.936,0.84c-0.6,0-0.912-0.264-0.96-0.84
			c-0.816-3.072-1.873-5.688-3.145-7.849l-0.312-0.696c0-0.48,0.264-0.744,0.84-0.744C79.083,21.306,79.395,21.498,79.587,21.857z
			 M87.748,27.306c1.008,1.248,2.04,3.288,3.096,6.096c0.24,0.576,0.384,0.984,0.384,1.224c0,0.576-0.336,0.84-0.96,0.84
			c-0.576,0-0.888-0.264-0.936-0.84c-0.816-2.568-1.824-4.752-3.048-6.552l-0.312-0.576c0-0.504,0.264-0.768,0.84-0.768
			C87.244,26.73,87.556,26.922,87.748,27.306z"/>
		<path fill="#333333" d="M98.426,20.465c0,0.12-0.048,0.264-0.096,0.456c-0.408,1.92-0.912,3.601-1.488,5.064v15.097
			c0,0.624-0.312,0.936-0.936,0.936s-0.936-0.312-0.936-0.936V29.802c-0.24,0.384-0.456,0.72-0.672,1.056
			c-0.24,0.192-0.504,0.288-0.744,0.288c-0.624,0-0.936-0.264-0.936-0.84c0-0.096,0.048-0.288,0.192-0.576
			c0.792-1.2,1.488-2.568,2.112-4.056c0.648-1.584,1.2-3.408,1.632-5.497c0.072-0.36,0.36-0.552,0.84-0.552
			C98.066,19.625,98.426,19.914,98.426,20.465z M105.843,30.306c0,0.576-0.36,0.912-1.032,1.032
			c-0.336,0.048-0.696,0.096-1.128,0.12v1.464h3.672c0-0.096-0.024-0.216-0.024-0.312c-0.048-0.96-0.072-1.728-0.072-2.304
			c0-0.552,0.264-0.84,0.84-0.84c0.624,0,0.936,0.288,0.936,0.84c0,1.008,0.048,1.872,0.144,2.616h5.568
			c0.552,0,0.84,0.288,0.84,0.84c0,0.576-0.288,0.864-0.84,0.864h-5.328c0.192,0.912,0.456,1.68,0.84,2.353
			c0.024,0.048,0.048,0.096,0.072,0.12c0.024,0,0.048-0.024,0.072-0.048c0.48-0.408,1.056-1.008,1.728-1.776
			c0.12-0.12,0.312-0.192,0.552-0.192c0.216,0,0.408,0.072,0.576,0.216c0.168,0.168,0.264,0.336,0.264,0.528
			c0,0.264-0.072,0.48-0.192,0.672c-0.72,0.864-1.344,1.536-1.848,1.968c-0.048,0.048-0.072,0.048-0.072,0.048
			c0.192,0.216,0.408,0.408,0.624,0.552c0.432,0.336,0.744,0.528,0.936,0.528c0.168,0,0.288-0.264,0.36-0.744l0.192-1.224
			c0.048-0.432,0.312-0.672,0.744-0.672c0.624,0,0.96,0.288,0.96,0.84c0,0.264-0.048,0.624-0.12,1.08
			c-0.12,0.816-0.336,1.536-0.624,2.16c-0.288,0.408-0.672,0.624-1.152,0.624c-0.408,0-0.864-0.144-1.392-0.432
			c-0.816-0.48-1.464-0.984-1.968-1.56c-0.168,0.096-0.312,0.192-0.432,0.288c-0.792,0.48-1.704,0.96-2.76,1.416h-0.552
			c-0.216,0-0.408-0.096-0.552-0.288c-0.144-0.192-0.216-0.408-0.216-0.648c0-0.432,0.192-0.672,0.576-0.744
			c0.96-0.408,1.824-0.84,2.568-1.296c0.096-0.048,0.168-0.12,0.264-0.192c-0.312-0.48-0.552-0.984-0.72-1.512
			c-0.24-0.576-0.408-1.248-0.552-2.064h-3.913v1.344c0.576-0.12,1.104-0.264,1.584-0.408c0.144-0.048,0.264-0.096,0.384-0.096
			c0.456,0.024,0.696,0.24,0.744,0.648c0,0.432-0.192,0.72-0.552,0.84c-0.6,0.24-1.32,0.456-2.16,0.648v2.088
			c0,1.344-0.792,2.041-2.352,2.041c-0.72,0-1.656-0.216-2.808-0.648c-0.432-0.144-0.648-0.432-0.648-0.84
			c0-0.6,0.264-0.912,0.744-0.936c0.096,0,0.216,0.024,0.408,0.072c1.032,0.384,1.704,0.576,2.04,0.576
			c0.552,0,0.84-0.312,0.84-0.936v-1.008c-0.984,0.192-2.112,0.384-3.384,0.552c-0.432-0.048-0.648-0.36-0.648-0.936
			c0-0.48,0.216-0.768,0.648-0.864c1.392-0.12,2.472-0.264,3.24-0.432c0.048,0,0.096-0.024,0.144-0.024v-1.68h-3.289
			c-0.576,0-0.84-0.288-0.84-0.864c0-0.552,0.264-0.84,0.84-0.84h3.289v-1.344c-1.176,0.096-1.992,0.12-2.448,0.12
			c-0.696,0-1.032-0.312-1.032-0.936c0-0.48,0.264-0.744,0.84-0.744c0.984,0,1.92-0.048,2.784-0.144
			c0.84-0.048,1.824-0.192,2.952-0.408C105.555,29.466,105.843,29.754,105.843,30.306z M103.395,19.889
			c0.384,0.48,0.769,1.008,1.128,1.608c0.048,0.144,0.096,0.264,0.096,0.36v0.096h3.816c0.096-0.096,0.216-0.216,0.312-0.36
			c0.36-0.48,0.696-0.984,1.032-1.512c0.168-0.24,0.408-0.384,0.744-0.384c0.24,0,0.456,0.096,0.672,0.288
			c0.168,0.192,0.264,0.408,0.264,0.672c0,0.192-0.072,0.384-0.192,0.552c-0.168,0.288-0.36,0.528-0.552,0.744h3.384
			c0.48,0,0.744,0.264,0.744,0.744c0,0.576-0.264,0.864-0.744,0.864h-6.769v1.2h6c0.504,0,0.768,0.264,0.768,0.768
			c0,0.576-0.264,0.84-0.768,0.84h-6v1.32h7.321c0.48,0,0.744,0.264,0.744,0.744c0,0.576-0.264,0.84-0.744,0.84H98.618
			c-0.504,0-0.744-0.264-0.744-0.84c0-0.48,0.24-0.744,0.744-0.744h6.841v-1.32h-5.521c-0.504,0-0.744-0.264-0.744-0.84
			c0-0.504,0.24-0.768,0.744-0.768h5.521v-1.2h-6.097c-0.504,0-0.744-0.288-0.744-0.864c0-0.48,0.24-0.744,0.744-0.744h3.528
			c-0.312-0.264-0.6-0.504-0.888-0.744c-0.144-0.264-0.192-0.456-0.192-0.552c0-0.624,0.336-0.96,1.032-0.96
			C103.035,19.697,103.203,19.77,103.395,19.889z M111.748,29.826c0.312,0.192,0.6,0.36,0.864,0.504
			c0.288,0.192,0.672,0.48,1.104,0.816c0.048,0.192,0.096,0.36,0.096,0.552c0,0.528-0.312,0.768-0.936,0.768
			c-0.264,0-0.48-0.048-0.648-0.192c-0.384-0.288-0.672-0.528-0.912-0.696c-0.216-0.144-0.456-0.288-0.696-0.432
			c-0.192-0.216-0.288-0.432-0.288-0.648c0-0.552,0.288-0.84,0.864-0.84C111.339,29.658,111.507,29.73,111.748,29.826z"/>
		<path fill="#333333" d="M138.004,20.657c-0.048,0.528-0.288,0.792-0.744,0.84c-2.928,0.576-8.233,0.84-15.961,0.84
			c-0.504,0-0.744,0.312-0.744,0.936v0.456h16.513c1.249,0,1.873,0.576,1.873,1.705v1.488c0,1.2-0.624,1.776-1.873,1.776h-6.672
			v1.992h8.449c0.552,0,0.84,0.288,0.84,0.84c0,0.624-0.288,0.936-0.84,0.936h-10.153c-0.072,0.576-0.144,1.104-0.24,1.584h7.681
			c1.249,0,1.873,0.696,1.873,2.064c0,1.2-0.096,2.304-0.288,3.288c-0.192,0.864-0.6,1.44-1.176,1.729
			c-0.648,0.288-1.56,0.432-2.76,0.432c-1.104,0-2.328-0.168-3.648-0.48c-0.456-0.144-0.672-0.456-0.672-0.936
			c0-0.768,0.264-1.128,0.84-1.128c1.417,0.384,2.521,0.576,3.289,0.576s1.296-0.096,1.608-0.24s0.528-0.408,0.648-0.84
			c0.12-0.456,0.192-1.008,0.192-1.656c0-0.744-0.312-1.128-0.936-1.128h-6.937c-0.072,0-0.12,0-0.12,0
			c-0.072,0.24-0.144,0.456-0.216,0.648c-0.48,1.296-1.2,2.352-2.16,3.12c-0.96,0.768-2.256,1.44-3.936,2.016
			c-0.168,0.024-0.24,0.048-0.24,0.048c-0.696,0-1.032-0.384-1.032-1.128c0-0.36,0.192-0.6,0.576-0.744
			c1.44-0.432,2.592-1.008,3.457-1.752c0.672-0.576,1.2-1.368,1.632-2.376c0.288-0.744,0.528-1.776,0.696-3.096h-4.488
			c-0.576,0-0.84-0.312-0.84-0.936c0-0.552,0.264-0.84,0.84-0.84h6.096v-1.992h-7.873v2.544c0,2.424-0.24,4.464-0.672,6.145
			c-0.408,1.488-0.84,2.544-1.296,3.24c-0.24,0.288-0.552,0.432-0.936,0.456c-0.672-0.048-1.008-0.36-1.032-0.936
			c0-0.072,0.048-0.24,0.192-0.528c0.552-0.864,0.96-1.896,1.248-3.096c0.408-1.488,0.624-3.265,0.624-5.281v-9.097
			c0-0.984,0.504-1.488,1.512-1.488c7.584,0,13.225-0.312,16.873-0.96C137.644,19.746,137.956,20.058,138.004,20.657z
			 M136.684,27.114c0.24,0,0.384-0.168,0.384-0.552V25.89c0-0.313-0.192-0.504-0.576-0.552h-15.938v1.776H136.684z"/>
		<path fill="#333333" d="M144.002,29.826c0,2.712-0.144,5.064-0.408,7.033c-0.24,1.44-0.504,2.688-0.816,3.768
			c-0.216,0.432-0.528,0.648-0.936,0.648c-0.672-0.048-1.008-0.36-1.032-0.936c0.408-1.824,0.72-3.457,0.936-4.896
			c0.24-1.68,0.384-3.552,0.384-5.617v-7.777c0-1.176,0.624-1.776,1.872-1.776h16.874c1.248,0,1.872,0.6,1.872,1.776v1.776
			c0,1.248-0.624,1.872-1.872,1.872h-16.874V29.826z M144.746,22.049c-0.504,0-0.744,0.264-0.744,0.744v1.128h16.394
			c0.312,0,0.48-0.168,0.48-0.552v-0.744c0-0.312-0.216-0.504-0.648-0.576h-6.192H144.746z M163.132,27.762
			c0,0.576-0.288,0.864-0.864,0.864h-9.769l-2.641,3.216c3.048-0.096,5.881-0.312,8.473-0.6c-0.336-0.24-0.696-0.504-1.032-0.744
			c-0.192-0.216-0.264-0.432-0.264-0.672c0-0.552,0.264-0.84,0.84-0.84c0.168,0,0.384,0.072,0.648,0.192
			c0.72,0.48,1.392,0.96,1.968,1.416c0.672,0.504,1.536,1.248,2.544,2.232c0.048,0.192,0.096,0.384,0.096,0.576
			c0,0.576-0.312,0.84-0.936,0.84c-0.312,0-0.576-0.048-0.768-0.192c-0.528-0.528-0.984-0.96-1.368-1.344
			c-0.048,0.024-0.096,0.024-0.12,0.024c-1.992,0.24-3.937,0.432-5.809,0.576v2.16h6.457c0.552,0,0.84,0.288,0.84,0.84
			c0,0.624-0.288,0.936-0.84,0.936h-6.457v2.064h8.137c0.576,0,0.864,0.264,0.864,0.84c0,0.624-0.288,0.936-0.864,0.936h-17.425
			c-0.576,0-0.84-0.312-0.84-0.936c0-0.576,0.264-0.84,0.84-0.84h7.417v-2.064h-6c-0.576,0-0.864-0.312-0.864-0.936
			c0-0.552,0.288-0.84,0.864-0.84h6v-1.992c-2.448,0.216-4.824,0.384-7.128,0.48c-0.576,0-0.864-0.36-0.864-1.128
			c0-0.528,0.288-0.816,0.864-0.84c0.768,0,1.536-0.024,2.304-0.048l2.712-3.313h-4.656c-0.576,0-0.84-0.288-0.84-0.864
			c0-0.552,0.264-0.84,0.84-0.84h16.777C162.844,26.922,163.132,27.21,163.132,27.762z"/>
	</g>
</g>
</svg>
